<svg width="28" height="33" viewBox="0 0 28 33" fill="none" xmlns="http://www.w3.org/2000/svg">
<mask id="mask0_1_108" style="mask-type:luminance" maskUnits="userSpaceOnUse" x="0" y="0" width="28" height="33">
<path d="M27.741 0.0917969H0.258972V32.9078H27.741V0.0917969Z" fill="white"/>
</mask>
<g mask="url(#mask0_1_108)">
<path d="M14 32.9078L13.047 32.0918C11.733 30.9918 0.258972 21.0808 0.258972 13.8328C0.258972 10.1885 1.70668 6.69338 4.28362 4.11644C6.86056 1.53951 10.3556 0.0917969 14 0.0917969C17.6443 0.0917969 21.1394 1.53951 23.7163 4.11644C26.2933 6.69338 27.741 10.1885 27.741 13.8328C27.741 21.0808 16.267 30.9918 14.959 32.0918L14 32.9078ZM14 3.0628C11.1446 3.06597 8.40702 4.20169 6.38794 6.22077C4.36886 8.23984 3.23315 10.9774 3.22997 13.8328C3.22997 18.3868 10.289 25.6608 14 28.9898C17.711 25.6588 24.77 18.3808 24.77 13.8328C24.7668 10.9774 23.6311 8.23984 21.612 6.22077C19.5929 4.20169 16.8554 3.06597 14 3.0628Z" fill="white"/>
<path d="M14 19.2797C12.9227 19.2797 11.8695 18.9603 10.9738 18.3618C10.078 17.7632 9.37988 16.9125 8.96761 15.9172C8.55534 14.9219 8.44747 13.8267 8.65764 12.7701C8.86782 11.7135 9.38659 10.7429 10.1484 9.98113C10.9101 9.21935 11.8807 8.70058 12.9373 8.49041C13.9939 8.28023 15.0892 8.3881 16.0845 8.80037C17.0798 9.21264 17.9305 9.9108 18.529 10.8066C19.1275 11.7023 19.447 12.7554 19.447 13.8328C19.447 15.2774 18.8731 16.6629 17.8516 17.6844C16.8301 18.7059 15.4446 19.2797 14 19.2797ZM14 11.1097C13.4614 11.1097 12.935 11.2694 12.4872 11.5687C12.0394 11.8679 11.6904 12.2931 11.4843 12.7907C11.2782 13.2883 11.2242 13.8358 11.3293 14.364C11.4344 14.8922 11.6937 15.3774 12.0745 15.7582C12.4553 16.139 12.9405 16.3984 13.4688 16.5034C13.997 16.6085 14.5445 16.5546 15.042 16.3485C15.5396 16.1424 15.9649 15.7934 16.2641 15.3456C16.5633 14.8978 16.723 14.3713 16.723 13.8328C16.723 13.4752 16.6525 13.1211 16.5157 12.7907C16.3789 12.4603 16.1783 12.1601 15.9254 11.9073C15.6726 11.6544 15.3724 11.4539 15.042 11.317C14.7117 11.1802 14.3576 11.1097 14 11.1097Z" fill="white"/>
</g>
</svg>
